<svg width="870" height="252" viewBox="0 0 870 252" fill="none" xmlns="http://www.w3.org/2000/svg">
<path opacity="0.25" d="M80.9734 36.25V57.55H115.323V77.35H80.9734V100.45H119.823V121H55.3234V15.7H119.823V36.25H80.9734ZM185.976 121L169.926 97.75L156.426 121H128.676L156.276 78.25L127.926 37.3H156.726L172.776 60.4L186.276 37.3H214.026L185.976 79.45L214.776 121H185.976ZM303.559 77.8C303.559 80.2 303.409 82.7 303.109 85.3H245.059C245.459 90.5 247.109 94.5 250.009 97.3C253.009 100 256.659 101.35 260.959 101.35C267.359 101.35 271.809 98.65 274.309 93.25H301.609C300.209 98.75 297.659 103.7 293.959 108.1C290.359 112.5 285.809 115.95 280.309 118.45C274.809 120.95 268.659 122.2 261.859 122.2C253.659 122.2 246.359 120.45 239.959 116.95C233.559 113.45 228.559 108.45 224.959 101.95C221.359 95.45 219.559 87.85 219.559 79.15C219.559 70.45 221.309 62.85 224.809 56.35C228.409 49.85 233.409 44.85 239.809 41.35C246.209 37.85 253.559 36.1 261.859 36.1C269.959 36.1 277.159 37.8 283.459 41.2C289.759 44.6 294.659 49.45 298.159 55.75C301.759 62.05 303.559 69.4 303.559 77.8ZM277.309 71.05C277.309 66.65 275.809 63.15 272.809 60.55C269.809 57.95 266.059 56.65 261.559 56.65C257.259 56.65 253.609 57.9 250.609 60.4C247.709 62.9 245.909 66.45 245.209 71.05H277.309ZM311.991 79.15C311.991 70.45 313.741 62.85 317.241 56.35C320.841 49.85 325.791 44.85 332.091 41.35C338.491 37.85 345.791 36.1 353.991 36.1C364.491 36.1 373.241 38.85 380.241 44.35C387.341 49.85 391.991 57.6 394.191 67.6H366.891C364.591 61.2 360.141 58 353.541 58C348.841 58 345.091 59.85 342.291 63.55C339.491 67.15 338.091 72.35 338.091 79.15C338.091 85.95 339.491 91.2 342.291 94.9C345.091 98.5 348.841 100.3 353.541 100.3C360.141 100.3 364.591 97.1 366.891 90.7H394.191C391.991 100.5 387.341 108.2 380.241 113.8C373.141 119.4 364.391 122.2 353.991 122.2C345.791 122.2 338.491 120.45 332.091 116.95C325.791 113.45 320.841 108.45 317.241 101.95C313.741 95.45 311.991 87.85 311.991 79.15ZM490.561 37.3V121H464.911V109.6C462.311 113.3 458.761 116.3 454.261 118.6C449.861 120.8 444.961 121.9 439.561 121.9C433.161 121.9 427.511 120.5 422.611 117.7C417.711 114.8 413.911 110.65 411.211 105.25C408.511 99.85 407.161 93.5 407.161 86.2V37.3H432.661V82.75C432.661 88.35 434.111 92.7 437.011 95.8C439.911 98.9 443.811 100.45 448.711 100.45C453.711 100.45 457.661 98.9 460.561 95.8C463.461 92.7 464.911 88.35 464.911 82.75V37.3H490.561ZM555.636 99.25V121H542.586C533.286 121 526.036 118.75 520.836 114.25C515.636 109.65 513.036 102.2 513.036 91.9V58.6H502.836V37.3H513.036V16.9H538.686V37.3H555.486V58.6H538.686V92.2C538.686 94.7 539.286 96.5 540.486 97.6C541.686 98.7 543.686 99.25 546.486 99.25H555.636ZM582.823 28.6C578.323 28.6 574.623 27.3 571.723 24.7C568.923 22 567.523 18.7 567.523 14.8C567.523 10.8 568.923 7.49999 571.723 4.89999C574.623 2.19999 578.323 0.849991 582.823 0.849991C587.223 0.849991 590.823 2.19999 593.623 4.89999C596.523 7.49999 597.973 10.8 597.973 14.8C597.973 18.7 596.523 22 593.623 24.7C590.823 27.3 587.223 28.6 582.823 28.6ZM595.573 37.3V121H569.923V37.3H595.573ZM651.811 97L669.961 37.3H697.261L667.561 121H635.911L606.211 37.3H633.661L651.811 97ZM786.958 77.8C786.958 80.2 786.808 82.7 786.508 85.3H728.458C728.858 90.5 730.508 94.5 733.408 97.3C736.408 100 740.058 101.35 744.358 101.35C750.758 101.35 755.208 98.65 757.708 93.25H785.008C783.608 98.75 781.058 103.7 777.358 108.1C773.758 112.5 769.208 115.95 763.708 118.45C758.208 120.95 752.058 122.2 745.258 122.2C737.058 122.2 729.758 120.45 723.358 116.95C716.958 113.45 711.958 108.45 708.358 101.95C704.758 95.45 702.958 87.85 702.958 79.15C702.958 70.45 704.708 62.85 708.208 56.35C711.808 49.85 716.808 44.85 723.208 41.35C729.608 37.85 736.958 36.1 745.258 36.1C753.358 36.1 760.558 37.8 766.858 41.2C773.158 44.6 778.058 49.45 781.558 55.75C785.158 62.05 786.958 69.4 786.958 77.8ZM760.708 71.05C760.708 66.65 759.208 63.15 756.208 60.55C753.208 57.95 749.458 56.65 744.958 56.65C740.658 56.65 737.008 57.9 734.008 60.4C731.108 62.9 729.308 66.45 728.608 71.05H760.708ZM0.289844 197.2C0.289844 186.8 2.53984 177.55 7.03984 169.45C11.5398 161.25 17.7898 154.9 25.7898 150.4C33.8898 145.8 43.0398 143.5 53.2398 143.5C65.7398 143.5 76.4398 146.8 85.3398 153.4C94.2398 160 100.19 169 103.19 180.4H74.9898C72.8898 176 69.8898 172.65 65.9898 170.35C62.1898 168.05 57.8398 166.9 52.9398 166.9C45.0398 166.9 38.6398 169.65 33.7398 175.15C28.8398 180.65 26.3898 188 26.3898 197.2C26.3898 206.4 28.8398 213.75 33.7398 219.25C38.6398 224.75 45.0398 227.5 52.9398 227.5C57.8398 227.5 62.1898 226.35 65.9898 224.05C69.8898 221.75 72.8898 218.4 74.9898 214H103.19C100.19 225.4 94.2398 234.4 85.3398 241C76.4398 247.5 65.7398 250.75 53.2398 250.75C43.0398 250.75 33.8898 248.5 25.7898 244C17.7898 239.4 11.5398 233.05 7.03984 224.95C2.53984 216.85 0.289844 207.6 0.289844 197.2ZM156.998 251.2C148.798 251.2 141.398 249.45 134.798 245.95C128.298 242.45 123.148 237.45 119.348 230.95C115.648 224.45 113.798 216.85 113.798 208.15C113.798 199.55 115.698 192 119.498 185.5C123.298 178.9 128.498 173.85 135.098 170.35C141.698 166.85 149.098 165.1 157.298 165.1C165.498 165.1 172.898 166.85 179.498 170.35C186.098 173.85 191.298 178.9 195.098 185.5C198.898 192 200.798 199.55 200.798 208.15C200.798 216.75 198.848 224.35 194.948 230.95C191.148 237.45 185.898 242.45 179.198 245.95C172.598 249.45 165.198 251.2 156.998 251.2ZM156.998 229C161.898 229 166.048 227.2 169.448 223.6C172.948 220 174.698 214.85 174.698 208.15C174.698 201.45 172.998 196.3 169.598 192.7C166.298 189.1 162.198 187.3 157.298 187.3C152.298 187.3 148.148 189.1 144.848 192.7C141.548 196.2 139.898 201.35 139.898 208.15C139.898 214.85 141.498 220 144.698 223.6C147.998 227.2 152.098 229 156.998 229ZM321.205 165.4C331.605 165.4 339.855 168.55 345.955 174.85C352.155 181.15 355.255 189.9 355.255 201.1V250H329.755V204.55C329.755 199.15 328.305 195 325.405 192.1C322.605 189.1 318.705 187.6 313.705 187.6C308.705 187.6 304.755 189.1 301.855 192.1C299.055 195 297.655 199.15 297.655 204.55V250H272.155V204.55C272.155 199.15 270.705 195 267.805 192.1C265.005 189.1 261.105 187.6 256.105 187.6C251.105 187.6 247.155 189.1 244.255 192.1C241.455 195 240.055 199.15 240.055 204.55V250H214.405V166.3H240.055V176.8C242.655 173.3 246.055 170.55 250.255 168.55C254.455 166.45 259.205 165.4 264.505 165.4C270.805 165.4 276.405 166.75 281.305 169.45C286.305 172.15 290.205 176 293.005 181C295.905 176.4 299.855 172.65 304.855 169.75C309.855 166.85 315.305 165.4 321.205 165.4ZM479.995 165.4C490.395 165.4 498.645 168.55 504.745 174.85C510.945 181.15 514.045 189.9 514.045 201.1V250H488.545V204.55C488.545 199.15 487.095 195 484.195 192.1C481.395 189.1 477.495 187.6 472.495 187.6C467.495 187.6 463.545 189.1 460.645 192.1C457.845 195 456.445 199.15 456.445 204.55V250H430.945V204.55C430.945 199.15 429.495 195 426.595 192.1C423.795 189.1 419.895 187.6 414.895 187.6C409.895 187.6 405.945 189.1 403.045 192.1C400.245 195 398.845 199.15 398.845 204.55V250H373.195V166.3H398.845V176.8C401.445 173.3 404.845 170.55 409.045 168.55C413.245 166.45 417.995 165.4 423.295 165.4C429.595 165.4 435.195 166.75 440.095 169.45C445.095 172.15 448.995 176 451.795 181C454.695 176.4 458.645 172.65 463.645 169.75C468.645 166.85 474.095 165.4 479.995 165.4ZM544.884 157.6C540.384 157.6 536.684 156.3 533.784 153.7C530.984 151 529.584 147.7 529.584 143.8C529.584 139.8 530.984 136.5 533.784 133.9C536.684 131.2 540.384 129.85 544.884 129.85C549.284 129.85 552.884 131.2 555.684 133.9C558.584 136.5 560.034 139.8 560.034 143.8C560.034 147.7 558.584 151 555.684 153.7C552.884 156.3 549.284 157.6 544.884 157.6ZM557.634 166.3V250H531.984V166.3H557.634ZM622.872 228.25V250H609.822C600.522 250 593.272 247.75 588.072 243.25C582.872 238.65 580.272 231.2 580.272 220.9V187.6H570.072V166.3H580.272V145.9H605.922V166.3H622.722V187.6H605.922V221.2C605.922 223.7 606.522 225.5 607.722 226.6C608.922 227.7 610.922 228.25 613.722 228.25H622.872ZM683.809 228.25V250H670.759C661.459 250 654.209 247.75 649.009 243.25C643.809 238.65 641.209 231.2 641.209 220.9V187.6H631.009V166.3H641.209V145.9H666.859V166.3H683.659V187.6H666.859V221.2C666.859 223.7 667.459 225.5 668.659 226.6C669.859 227.7 671.859 228.25 674.659 228.25H683.809ZM776.997 206.8C776.997 209.2 776.847 211.7 776.547 214.3H718.497C718.897 219.5 720.547 223.5 723.447 226.3C726.447 229 730.097 230.35 734.397 230.35C740.797 230.35 745.247 227.65 747.747 222.25H775.047C773.647 227.75 771.097 232.7 767.397 237.1C763.797 241.5 759.247 244.95 753.747 247.45C748.247 249.95 742.097 251.2 735.297 251.2C727.097 251.2 719.797 249.45 713.397 245.95C706.997 242.45 701.997 237.45 698.397 230.95C694.797 224.45 692.997 216.85 692.997 208.15C692.997 199.45 694.747 191.85 698.247 185.35C701.847 178.85 706.847 173.85 713.247 170.35C719.647 166.85 726.997 165.1 735.297 165.1C743.397 165.1 750.597 166.8 756.897 170.2C763.197 173.6 768.097 178.45 771.597 184.75C775.197 191.05 776.997 198.4 776.997 206.8ZM750.747 200.05C750.747 195.65 749.247 192.15 746.247 189.55C743.247 186.95 739.497 185.65 734.997 185.65C730.697 185.65 727.047 186.9 724.047 189.4C721.147 191.9 719.347 195.45 718.647 200.05H750.747ZM869.429 206.8C869.429 209.2 869.279 211.7 868.979 214.3H810.929C811.329 219.5 812.979 223.5 815.879 226.3C818.879 229 822.529 230.35 826.829 230.35C833.229 230.35 837.679 227.65 840.179 222.25H867.479C866.079 227.75 863.529 232.7 859.829 237.1C856.229 241.5 851.679 244.95 846.179 247.45C840.679 249.95 834.529 251.2 827.729 251.2C819.529 251.2 812.229 249.45 805.829 245.95C799.429 242.45 794.429 237.45 790.829 230.95C787.229 224.45 785.429 216.85 785.429 208.15C785.429 199.45 787.179 191.85 790.679 185.35C794.279 178.85 799.279 173.85 805.679 170.35C812.079 166.85 819.429 165.1 827.729 165.1C835.829 165.1 843.029 166.8 849.329 170.2C855.629 173.6 860.529 178.45 864.029 184.75C867.629 191.05 869.429 198.4 869.429 206.8ZM843.179 200.05C843.179 195.65 841.679 192.15 838.679 189.55C835.679 186.95 831.929 185.65 827.429 185.65C823.129 185.65 819.479 186.9 816.479 189.4C813.579 191.9 811.779 195.45 811.079 200.05H843.179Z" fill="#19A89D"/>
</svg>
