<svg width="1001" height="140" viewBox="0 0 1001 140" fill="none" xmlns="http://www.w3.org/2000/svg">
<path opacity="0.25" d="M79.1 13.74V105H56.87V67.43H22.29V105H0.0600004V13.74H22.29V49.49H56.87V13.74H79.1ZM166.778 32.46V105H144.548V95.12C142.295 98.3267 139.218 100.927 135.318 102.92C131.505 104.827 127.258 105.78 122.578 105.78C117.031 105.78 112.135 104.567 107.888 102.14C103.641 99.6267 100.348 96.03 98.0079 91.35C95.6679 86.67 94.4979 81.1667 94.4979 74.84V32.46H116.598V71.85C116.598 76.7033 117.855 80.4733 120.368 83.16C122.881 85.8467 126.261 87.19 130.508 87.19C134.841 87.19 138.265 85.8467 140.778 83.16C143.291 80.4733 144.548 76.7033 144.548 71.85V32.46H166.778ZM275.306 31.68C284.319 31.68 291.469 34.41 296.756 39.87C302.129 45.33 304.816 52.9133 304.816 62.62V105H282.716V65.61C282.716 60.93 281.459 57.3333 278.946 54.82C276.519 52.22 273.139 50.92 268.806 50.92C264.472 50.92 261.049 52.22 258.536 54.82C256.109 57.3333 254.896 60.93 254.896 65.61V105H232.796V65.61C232.796 60.93 231.539 57.3333 229.026 54.82C226.599 52.22 223.219 50.92 218.886 50.92C214.552 50.92 211.129 52.22 208.616 54.82C206.189 57.3333 204.976 60.93 204.976 65.61V105H182.746V32.46H204.976V41.56C207.229 38.5267 210.176 36.1433 213.816 34.41C217.456 32.59 221.572 31.68 226.166 31.68C231.626 31.68 236.479 32.85 240.726 35.19C245.059 37.53 248.439 40.8667 250.866 45.2C253.379 41.2133 256.802 37.9633 261.136 35.45C265.469 32.9367 270.192 31.68 275.306 31.68ZM315.943 68.6C315.943 61.1467 317.329 54.6033 320.103 48.97C322.963 43.3367 326.819 39.0033 331.673 35.97C336.526 32.9367 341.943 31.42 347.923 31.42C353.036 31.42 357.499 32.46 361.313 34.54C365.213 36.62 368.203 39.35 370.283 42.73V32.46H392.513V105H370.283V94.73C368.116 98.11 365.083 100.84 361.183 102.92C357.369 105 352.906 106.04 347.793 106.04C341.899 106.04 336.526 104.523 331.673 101.49C326.819 98.37 322.963 93.9933 320.103 88.36C317.329 82.64 315.943 76.0533 315.943 68.6ZM370.283 68.73C370.283 63.1833 368.723 58.8067 365.603 55.6C362.569 52.3933 358.843 50.79 354.423 50.79C350.003 50.79 346.233 52.3933 343.113 55.6C340.079 58.72 338.563 63.0533 338.563 68.6C338.563 74.1467 340.079 78.5667 343.113 81.86C346.233 85.0667 350.003 86.67 354.423 86.67C358.843 86.67 362.569 85.0667 365.603 81.86C368.723 78.6533 370.283 74.2767 370.283 68.73ZM452.795 31.68C461.288 31.68 468.048 34.4533 473.075 40C478.188 45.46 480.745 53 480.745 62.62V105H458.645V65.61C458.645 60.7567 457.388 56.9867 454.875 54.3C452.362 51.6133 448.982 50.27 444.735 50.27C440.488 50.27 437.108 51.6133 434.595 54.3C432.082 56.9867 430.825 60.7567 430.825 65.61V105H408.595V32.46H430.825V42.08C433.078 38.8733 436.112 36.36 439.925 34.54C443.738 32.6333 448.028 31.68 452.795 31.68ZM519.972 59.24C519.972 50.2267 521.922 42.21 525.822 35.19C529.722 28.0833 535.138 22.58 542.072 18.68C549.092 14.6933 557.022 12.7 565.862 12.7C576.695 12.7 585.968 15.56 593.682 21.28C601.395 27 606.552 34.8 609.152 44.68H584.712C582.892 40.8667 580.292 37.9633 576.912 35.97C573.618 33.9767 569.848 32.98 565.602 32.98C558.755 32.98 553.208 35.3633 548.962 40.13C544.715 44.8967 542.592 51.2667 542.592 59.24C542.592 67.2133 544.715 73.5833 548.962 78.35C553.208 83.1167 558.755 85.5 565.602 85.5C569.848 85.5 573.618 84.5033 576.912 82.51C580.292 80.5167 582.892 77.6133 584.712 73.8H609.152C606.552 83.68 601.395 91.48 593.682 97.2C585.968 102.833 576.695 105.65 565.862 105.65C557.022 105.65 549.092 103.7 542.072 99.8C535.138 95.8133 529.722 90.31 525.822 83.29C521.922 76.27 519.972 68.2533 519.972 59.24ZM618.345 68.6C618.345 61.1467 619.732 54.6033 622.505 48.97C625.365 43.3367 629.222 39.0033 634.075 35.97C638.928 32.9367 644.345 31.42 650.325 31.42C655.438 31.42 659.902 32.46 663.715 34.54C667.615 36.62 670.605 39.35 672.685 42.73V32.46H694.915V105H672.685V94.73C670.518 98.11 667.485 100.84 663.585 102.92C659.772 105 655.308 106.04 650.195 106.04C644.302 106.04 638.928 104.523 634.075 101.49C629.222 98.37 625.365 93.9933 622.505 88.36C619.732 82.64 618.345 76.0533 618.345 68.6ZM672.685 68.73C672.685 63.1833 671.125 58.8067 668.005 55.6C664.972 52.3933 661.245 50.79 656.825 50.79C652.405 50.79 648.635 52.3933 645.515 55.6C642.482 58.72 640.965 63.0533 640.965 68.6C640.965 74.1467 642.482 78.5667 645.515 81.86C648.635 85.0667 652.405 86.67 656.825 86.67C661.245 86.67 664.972 85.0667 668.005 81.86C671.125 78.6533 672.685 74.2767 672.685 68.73ZM733.228 42.73C735.394 39.35 738.384 36.62 742.198 34.54C746.011 32.46 750.474 31.42 755.588 31.42C761.568 31.42 766.984 32.9367 771.838 35.97C776.691 39.0033 780.504 43.3367 783.278 48.97C786.138 54.6033 787.568 61.1467 787.568 68.6C787.568 76.0533 786.138 82.64 783.278 88.36C780.504 93.9933 776.691 98.37 771.838 101.49C766.984 104.523 761.568 106.04 755.588 106.04C750.561 106.04 746.098 105 742.198 102.92C738.384 100.84 735.394 98.1533 733.228 94.86V139.58H710.998V32.46H733.228V42.73ZM764.948 68.6C764.948 63.0533 763.388 58.72 760.268 55.6C757.234 52.3933 753.464 50.79 748.958 50.79C744.538 50.79 740.768 52.3933 737.648 55.6C734.614 58.8067 733.098 63.1833 733.098 68.73C733.098 74.2767 734.614 78.6533 737.648 81.86C740.768 85.0667 744.538 86.67 748.958 86.67C753.378 86.67 757.148 85.0667 760.268 81.86C763.388 78.5667 764.948 74.1467 764.948 68.6ZM810.41 24.92C806.51 24.92 803.303 23.7933 800.79 21.54C798.363 19.2 797.15 16.34 797.15 12.96C797.15 9.49333 798.363 6.63333 800.79 4.37999C803.303 2.03999 806.51 0.869992 810.41 0.869992C814.223 0.869992 817.343 2.03999 819.77 4.37999C822.283 6.63333 823.54 9.49333 823.54 12.96C823.54 16.34 822.283 19.2 819.77 21.54C817.343 23.7933 814.223 24.92 810.41 24.92ZM821.46 32.46V105H799.23V32.46H821.46ZM878 86.15V105H866.69C858.63 105 852.346 103.05 847.84 99.15C843.333 95.1633 841.08 88.7067 841.08 79.78V50.92H832.24V32.46H841.08V14.78H863.31V32.46H877.87V50.92H863.31V80.04C863.31 82.2067 863.83 83.7667 864.87 84.72C865.91 85.6733 867.643 86.15 870.07 86.15H878ZM885.962 68.6C885.962 61.1467 887.349 54.6033 890.122 48.97C892.982 43.3367 896.839 39.0033 901.692 35.97C906.546 32.9367 911.962 31.42 917.942 31.42C923.056 31.42 927.519 32.46 931.332 34.54C935.232 36.62 938.222 39.35 940.302 42.73V32.46H962.532V105H940.302V94.73C938.136 98.11 935.102 100.84 931.202 102.92C927.389 105 922.926 106.04 917.812 106.04C911.919 106.04 906.546 104.523 901.692 101.49C896.839 98.37 892.982 93.9933 890.122 88.36C887.349 82.64 885.962 76.0533 885.962 68.6ZM940.302 68.73C940.302 63.1833 938.742 58.8067 935.622 55.6C932.589 52.3933 928.862 50.79 924.442 50.79C920.022 50.79 916.252 52.3933 913.132 55.6C910.099 58.72 908.582 63.0533 908.582 68.6C908.582 74.1467 910.099 78.5667 913.132 81.86C916.252 85.0667 920.022 86.67 924.442 86.67C928.862 86.67 932.589 85.0667 935.622 81.86C938.742 78.6533 940.302 74.2767 940.302 68.73ZM1000.84 8.8V105H978.615V8.8H1000.84Z" fill="#19A89D"/>
</svg>
