<svg width="889" height="287" viewBox="0 0 889 287" fill="none" xmlns="http://www.w3.org/2000/svg">
<path opacity="0.25" d="M119.755 22.74V114H97.5248V22.74H119.755ZM180.065 40.68C188.558 40.68 195.318 43.4533 200.345 49C205.458 54.46 208.015 62 208.015 71.62V114H185.915V74.61C185.915 69.7567 184.658 65.9867 182.145 63.3C179.631 60.6133 176.251 59.27 172.005 59.27C167.758 59.27 164.378 60.6133 161.865 63.3C159.351 65.9867 158.095 69.7567 158.095 74.61V114H135.865V41.46H158.095V51.08C160.348 47.8733 163.381 45.36 167.195 43.54C171.008 41.6333 175.298 40.68 180.065 40.68ZM259.862 59.92H247.902V114H225.672V59.92H217.612V41.46H225.672V39.38C225.672 30.4533 228.229 23.6933 233.342 19.1C238.456 14.42 245.952 12.08 255.832 12.08C257.479 12.08 258.692 12.1233 259.472 12.21V31.06C255.226 30.8 252.236 31.4067 250.502 32.88C248.769 34.3533 247.902 36.9967 247.902 40.81V41.46H259.862V59.92ZM303.328 115.04C296.221 115.04 289.808 113.523 284.088 110.49C278.455 107.457 273.991 103.123 270.698 97.49C267.491 91.8567 265.888 85.27 265.888 77.73C265.888 70.2767 267.535 63.7333 270.828 58.1C274.121 52.38 278.628 48.0033 284.348 44.97C290.068 41.9367 296.481 40.42 303.588 40.42C310.695 40.42 317.108 41.9367 322.828 44.97C328.548 48.0033 333.055 52.38 336.348 58.1C339.641 63.7333 341.288 70.2767 341.288 77.73C341.288 85.1833 339.598 91.77 336.218 97.49C332.925 103.123 328.375 107.457 322.568 110.49C316.848 113.523 310.435 115.04 303.328 115.04ZM303.328 95.8C307.575 95.8 311.171 94.24 314.118 91.12C317.151 88 318.668 83.5367 318.668 77.73C318.668 71.9233 317.195 67.46 314.248 64.34C311.388 61.22 307.835 59.66 303.588 59.66C299.255 59.66 295.658 61.22 292.798 64.34C289.938 67.3733 288.508 71.8367 288.508 77.73C288.508 83.5367 289.895 88 292.668 91.12C295.528 94.24 299.081 95.8 303.328 95.8ZM375.311 53.55C377.911 49.5633 381.161 46.4433 385.061 44.19C388.961 41.85 393.295 40.68 398.061 40.68V64.21H391.951C386.405 64.21 382.245 65.4233 379.471 67.85C376.698 70.19 375.311 74.35 375.311 80.33V114H353.081V41.46H375.311V53.55ZM501.247 40.68C510.26 40.68 517.41 43.41 522.697 48.87C528.07 54.33 530.757 61.9133 530.757 71.62V114H508.657V74.61C508.657 69.93 507.4 66.3333 504.887 63.82C502.46 61.22 499.08 59.92 494.747 59.92C490.414 59.92 486.99 61.22 484.477 63.82C482.05 66.3333 480.837 69.93 480.837 74.61V114H458.737V74.61C458.737 69.93 457.48 66.3333 454.967 63.82C452.54 61.22 449.16 59.92 444.827 59.92C440.494 59.92 437.07 61.22 434.557 63.82C432.13 66.3333 430.917 69.93 430.917 74.61V114H408.687V41.46H430.917V50.56C433.17 47.5267 436.117 45.1433 439.757 43.41C443.397 41.59 447.514 40.68 452.107 40.68C457.567 40.68 462.42 41.85 466.667 44.19C471 46.53 474.38 49.8667 476.807 54.2C479.32 50.2133 482.744 46.9633 487.077 44.45C491.41 41.9367 496.134 40.68 501.247 40.68ZM541.884 77.6C541.884 70.1467 543.271 63.6033 546.044 57.97C548.904 52.3367 552.761 48.0033 557.614 44.97C562.467 41.9367 567.884 40.42 573.864 40.42C578.977 40.42 583.441 41.46 587.254 43.54C591.154 45.62 594.144 48.35 596.224 51.73V41.46H618.454V114H596.224V103.73C594.057 107.11 591.024 109.84 587.124 111.92C583.311 114 578.847 115.04 573.734 115.04C567.841 115.04 562.467 113.523 557.614 110.49C552.761 107.37 548.904 102.993 546.044 97.36C543.271 91.64 541.884 85.0533 541.884 77.6ZM596.224 77.73C596.224 72.1833 594.664 67.8067 591.544 64.6C588.511 61.3933 584.784 59.79 580.364 59.79C575.944 59.79 572.174 61.3933 569.054 64.6C566.021 67.72 564.504 72.0533 564.504 77.6C564.504 83.1467 566.021 87.5667 569.054 90.86C572.174 94.0667 575.944 95.67 580.364 95.67C584.784 95.67 588.511 94.0667 591.544 90.86C594.664 87.6533 596.224 83.2767 596.224 77.73ZM674.967 95.15V114H663.657C655.597 114 649.313 112.05 644.807 108.15C640.3 104.163 638.047 97.7067 638.047 88.78V59.92H629.207V41.46H638.047V23.78H660.277V41.46H674.837V59.92H660.277V89.04C660.277 91.2067 660.797 92.7667 661.837 93.72C662.877 94.6733 664.61 95.15 667.037 95.15H674.967ZM698.529 33.92C694.629 33.92 691.422 32.7933 688.909 30.54C686.482 28.2 685.269 25.34 685.269 21.96C685.269 18.4933 686.482 15.6333 688.909 13.38C691.422 11.04 694.629 9.86999 698.529 9.86999C702.342 9.86999 705.462 11.04 707.889 13.38C710.402 15.6333 711.659 18.4933 711.659 21.96C711.659 25.34 710.402 28.2 707.889 30.54C705.462 32.7933 702.342 33.92 698.529 33.92ZM709.579 41.46V114H687.349V41.46H709.579ZM758.709 115.04C751.602 115.04 745.189 113.523 739.469 110.49C733.836 107.457 729.372 103.123 726.079 97.49C722.872 91.8567 721.269 85.27 721.269 77.73C721.269 70.2767 722.916 63.7333 726.209 58.1C729.502 52.38 734.009 48.0033 739.729 44.97C745.449 41.9367 751.862 40.42 758.969 40.42C766.076 40.42 772.489 41.9367 778.209 44.97C783.929 48.0033 788.436 52.38 791.729 58.1C795.022 63.7333 796.669 70.2767 796.669 77.73C796.669 85.1833 794.979 91.77 791.599 97.49C788.306 103.123 783.756 107.457 777.949 110.49C772.229 113.523 765.816 115.04 758.709 115.04ZM758.709 95.8C762.956 95.8 766.552 94.24 769.499 91.12C772.532 88 774.049 83.5367 774.049 77.73C774.049 71.9233 772.576 67.46 769.629 64.34C766.769 61.22 763.216 59.66 758.969 59.66C754.636 59.66 751.039 61.22 748.179 64.34C745.319 67.3733 743.889 71.8367 743.889 77.73C743.889 83.5367 745.276 88 748.049 91.12C750.909 94.24 754.462 95.8 758.709 95.8ZM852.662 40.68C861.156 40.68 867.916 43.4533 872.942 49C878.056 54.46 880.612 62 880.612 71.62V114H858.512V74.61C858.512 69.7567 857.256 65.9867 854.742 63.3C852.229 60.6133 848.849 59.27 844.602 59.27C840.356 59.27 836.976 60.6133 834.462 63.3C831.949 65.9867 830.692 69.7567 830.692 74.61V114H808.462V41.46H830.692V51.08C832.946 47.8733 835.979 45.36 839.792 43.54C843.606 41.6333 847.896 40.68 852.662 40.68ZM176.632 159.74V177.55H152.452V251H130.222V177.55H106.042V159.74H176.632ZM256.169 213.56C256.169 215.64 256.039 217.807 255.779 220.06H205.469C205.815 224.567 207.245 228.033 209.759 230.46C212.359 232.8 215.522 233.97 219.249 233.97C224.795 233.97 228.652 231.63 230.819 226.95H254.479C253.265 231.717 251.055 236.007 247.849 239.82C244.729 243.633 240.785 246.623 236.019 248.79C231.252 250.957 225.922 252.04 220.029 252.04C212.922 252.04 206.595 250.523 201.049 247.49C195.502 244.457 191.169 240.123 188.049 234.49C184.929 228.857 183.369 222.27 183.369 214.73C183.369 207.19 184.885 200.603 187.919 194.97C191.039 189.337 195.372 185.003 200.919 181.97C206.465 178.937 212.835 177.42 220.029 177.42C227.049 177.42 233.289 178.893 238.749 181.84C244.209 184.787 248.455 188.99 251.489 194.45C254.609 199.91 256.169 206.28 256.169 213.56ZM233.419 207.71C233.419 203.897 232.119 200.863 229.519 198.61C226.919 196.357 223.669 195.23 219.769 195.23C216.042 195.23 212.879 196.313 210.279 198.48C207.765 200.647 206.205 203.723 205.599 207.71H233.419ZM263.476 214.73C263.476 207.19 264.993 200.603 268.026 194.97C271.146 189.337 275.436 185.003 280.896 181.97C286.443 178.937 292.769 177.42 299.876 177.42C308.976 177.42 316.559 179.803 322.626 184.57C328.779 189.337 332.809 196.053 334.716 204.72H311.056C309.063 199.173 305.206 196.4 299.486 196.4C295.413 196.4 292.163 198.003 289.736 201.21C287.309 204.33 286.096 208.837 286.096 214.73C286.096 220.623 287.309 225.173 289.736 228.38C292.163 231.5 295.413 233.06 299.486 233.06C305.206 233.06 309.063 230.287 311.056 224.74H334.716C332.809 233.233 328.779 239.907 322.626 244.76C316.473 249.613 308.889 252.04 299.876 252.04C292.769 252.04 286.443 250.523 280.896 247.49C275.436 244.457 271.146 240.123 268.026 234.49C264.993 228.857 263.476 222.27 263.476 214.73ZM391.197 177.68C399.517 177.68 406.19 180.453 411.217 186C416.244 191.46 418.757 199 418.757 208.62V251H396.657V211.61C396.657 206.757 395.4 202.987 392.887 200.3C390.374 197.613 386.994 196.27 382.747 196.27C378.5 196.27 375.12 197.613 372.607 200.3C370.094 202.987 368.837 206.757 368.837 211.61V251H346.607V154.8H368.837V188.21C371.09 185.003 374.167 182.447 378.067 180.54C381.967 178.633 386.344 177.68 391.197 177.68ZM478.405 177.68C486.898 177.68 493.658 180.453 498.685 186C503.798 191.46 506.355 199 506.355 208.62V251H484.255V211.61C484.255 206.757 482.998 202.987 480.485 200.3C477.971 197.613 474.591 196.27 470.345 196.27C466.098 196.27 462.718 197.613 460.205 200.3C457.691 202.987 456.435 206.757 456.435 211.61V251H434.205V178.46H456.435V188.08C458.688 184.873 461.721 182.36 465.535 180.54C469.348 178.633 473.638 177.68 478.405 177.68ZM554.822 252.04C547.716 252.04 541.302 250.523 535.582 247.49C529.949 244.457 525.486 240.123 522.192 234.49C518.986 228.857 517.382 222.27 517.382 214.73C517.382 207.277 519.029 200.733 522.322 195.1C525.616 189.38 530.122 185.003 535.842 181.97C541.562 178.937 547.976 177.42 555.082 177.42C562.189 177.42 568.602 178.937 574.322 181.97C580.042 185.003 584.549 189.38 587.842 195.1C591.136 200.733 592.782 207.277 592.782 214.73C592.782 222.183 591.092 228.77 587.712 234.49C584.419 240.123 579.869 244.457 574.062 247.49C568.342 250.523 561.929 252.04 554.822 252.04ZM554.822 232.8C559.069 232.8 562.666 231.24 565.612 228.12C568.646 225 570.162 220.537 570.162 214.73C570.162 208.923 568.689 204.46 565.742 201.34C562.882 198.22 559.329 196.66 555.082 196.66C550.749 196.66 547.152 198.22 544.292 201.34C541.432 204.373 540.002 208.837 540.002 214.73C540.002 220.537 541.389 225 544.162 228.12C547.022 231.24 550.576 232.8 554.822 232.8ZM626.806 154.8V251H604.576V154.8H626.806ZM675.935 252.04C668.829 252.04 662.415 250.523 656.695 247.49C651.062 244.457 646.599 240.123 643.305 234.49C640.099 228.857 638.495 222.27 638.495 214.73C638.495 207.277 640.142 200.733 643.435 195.1C646.729 189.38 651.235 185.003 656.955 181.97C662.675 178.937 669.089 177.42 676.195 177.42C683.302 177.42 689.715 178.937 695.435 181.97C701.155 185.003 705.662 189.38 708.955 195.1C712.249 200.733 713.895 207.277 713.895 214.73C713.895 222.183 712.205 228.77 708.825 234.49C705.532 240.123 700.982 244.457 695.175 247.49C689.455 250.523 683.042 252.04 675.935 252.04ZM675.935 232.8C680.182 232.8 683.779 231.24 686.725 228.12C689.759 225 691.275 220.537 691.275 214.73C691.275 208.923 689.802 204.46 686.855 201.34C683.995 198.22 680.442 196.66 676.195 196.66C671.862 196.66 668.265 198.22 665.405 201.34C662.545 204.373 661.115 208.837 661.115 214.73C661.115 220.537 662.502 225 665.275 228.12C668.135 231.24 671.689 232.8 675.935 232.8ZM753.249 177.42C758.362 177.42 762.826 178.46 766.639 180.54C770.539 182.62 773.529 185.35 775.609 188.73V178.46H797.839V250.87C797.839 257.543 796.496 263.567 793.809 268.94C791.209 274.4 787.179 278.733 781.719 281.94C776.346 285.147 769.629 286.75 761.569 286.75C750.822 286.75 742.112 284.193 735.439 279.08C728.766 274.053 724.952 267.207 723.999 258.54H745.969C746.662 261.313 748.309 263.48 750.909 265.04C753.509 266.687 756.716 267.51 760.529 267.51C765.122 267.51 768.762 266.167 771.449 263.48C774.222 260.88 775.609 256.677 775.609 250.87V240.6C773.442 243.98 770.452 246.753 766.639 248.92C762.826 251 758.362 252.04 753.249 252.04C747.269 252.04 741.852 250.523 736.999 247.49C732.146 244.37 728.289 239.993 725.429 234.36C722.656 228.64 721.269 222.053 721.269 214.6C721.269 207.147 722.656 200.603 725.429 194.97C728.289 189.337 732.146 185.003 736.999 181.97C741.852 178.937 747.269 177.42 753.249 177.42ZM775.609 214.73C775.609 209.183 774.049 204.807 770.929 201.6C767.896 198.393 764.169 196.79 759.749 196.79C755.329 196.79 751.559 198.393 748.439 201.6C745.406 204.72 743.889 209.053 743.889 214.6C743.889 220.147 745.406 224.567 748.439 227.86C751.559 231.067 755.329 232.67 759.749 232.67C764.169 232.67 767.896 231.067 770.929 227.86C774.049 224.653 775.609 220.277 775.609 214.73ZM888.021 178.46L842.521 285.45H818.601L835.241 248.53L805.731 178.46H830.561L847.331 223.83L863.971 178.46H888.021Z" fill="#19A89D"/>
<path opacity="0.25" d="M57.9103 243L51.6703 236.952C45.4623 241.688 38.0383 244.056 29.3983 244.056C24.2143 244.056 19.7023 243.224 15.8623 241.56C12.0223 239.832 9.04625 237.432 6.93425 234.36C4.88625 231.224 3.86225 227.576 3.86225 223.416C3.86225 219.192 4.98225 215.384 7.22225 211.992C9.52625 208.536 12.9503 205.72 17.4943 203.544C15.8303 201.496 14.6463 199.544 13.9423 197.688C13.2383 195.768 12.8863 193.688 12.8863 191.448C12.8863 188.248 13.7183 185.336 15.3823 182.712C17.0463 180.088 19.4463 178.04 22.5823 176.568C25.7823 175.032 29.5583 174.264 33.9103 174.264C38.3263 174.264 42.0703 175.064 45.1423 176.664C48.2143 178.264 50.5183 180.408 52.0543 183.096C53.5903 185.784 54.2943 188.728 54.1663 191.928H38.7103C38.7743 190.2 38.3263 188.888 37.3663 187.992C36.4703 187.032 35.2543 186.552 33.7183 186.552C32.1823 186.552 30.9023 187 29.8783 187.896C28.8543 188.792 28.3423 189.944 28.3423 191.352C28.3423 192.696 28.7583 194.104 29.5903 195.576C30.4863 197.048 31.8623 198.744 33.7183 200.664L50.1343 216.696C50.2623 216.376 50.4223 215.992 50.6143 215.544C50.8703 215.096 51.1263 214.584 51.3823 214.008L54.9343 207.96H71.3503L66.7423 216.312C65.0143 220.088 63.0303 223.672 60.7903 227.064L77.0143 243H57.9103ZM30.1663 230.808C34.4543 230.808 38.2623 229.592 41.5903 227.16L26.6143 212.664C22.0063 215.032 19.7023 218.232 19.7023 222.264C19.7023 224.696 20.6303 226.744 22.4863 228.408C24.4063 230.008 26.9663 230.808 30.1663 230.808Z" fill="#19A89D"/>
</svg>
