<svg width="572" height="141" viewBox="0 0 572 141" fill="none" xmlns="http://www.w3.org/2000/svg">
<path opacity="0.25" d="M22.624 87.84H51.744V105H0.393985V13.74H22.624V87.84ZM130.727 67.56C130.727 69.64 130.597 71.8067 130.337 74.06H80.0271C80.3738 78.5667 81.8038 82.0333 84.3171 84.46C86.9171 86.8 90.0804 87.97 93.8071 87.97C99.3538 87.97 103.21 85.63 105.377 80.95H129.037C127.824 85.7167 125.614 90.0067 122.407 93.82C119.287 97.6333 115.344 100.623 110.577 102.79C105.81 104.957 100.48 106.04 94.5871 106.04C87.4804 106.04 81.1538 104.523 75.6071 101.49C70.0604 98.4567 65.7271 94.1233 62.6071 88.49C59.4871 82.8567 57.9271 76.27 57.9271 68.73C57.9271 61.19 59.4438 54.6033 62.4771 48.97C65.5971 43.3367 69.9304 39.0033 75.4771 35.97C81.0238 32.9367 87.3938 31.42 94.5871 31.42C101.607 31.42 107.847 32.8933 113.307 35.84C118.767 38.7867 123.014 42.99 126.047 48.45C129.167 53.91 130.727 60.28 130.727 67.56ZM107.977 61.71C107.977 57.8967 106.677 54.8633 104.077 52.61C101.477 50.3567 98.2271 49.23 94.3271 49.23C90.6004 49.23 87.4371 50.3133 84.8371 52.48C82.3238 54.6467 80.7638 57.7233 80.1571 61.71H107.977ZM138.035 68.6C138.035 61.1467 139.421 54.6033 142.195 48.97C145.055 43.3367 148.911 39.0033 153.765 35.97C158.618 32.9367 164.035 31.42 170.015 31.42C175.128 31.42 179.591 32.46 183.405 34.54C187.305 36.62 190.295 39.35 192.375 42.73V32.46H214.605V105H192.375V94.73C190.208 98.11 187.175 100.84 183.275 102.92C179.461 105 174.998 106.04 169.885 106.04C163.991 106.04 158.618 104.523 153.765 101.49C148.911 98.37 145.055 93.9933 142.195 88.36C139.421 82.64 138.035 76.0533 138.035 68.6ZM192.375 68.73C192.375 63.1833 190.815 58.8067 187.695 55.6C184.661 52.3933 180.935 50.79 176.515 50.79C172.095 50.79 168.325 52.3933 165.205 55.6C162.171 58.72 160.655 63.0533 160.655 68.6C160.655 74.1467 162.171 78.5667 165.205 81.86C168.325 85.0667 172.095 86.67 176.515 86.67C180.935 86.67 184.661 85.0667 187.695 81.86C190.815 78.6533 192.375 74.2767 192.375 68.73ZM252.917 44.55C255.517 40.5633 258.767 37.4433 262.667 35.19C266.567 32.85 270.9 31.68 275.667 31.68V55.21H269.557C264.01 55.21 259.85 56.4233 257.077 58.85C254.304 61.19 252.917 65.35 252.917 71.33V105H230.687V32.46H252.917V44.55ZM330.492 31.68C338.986 31.68 345.746 34.4533 350.772 40C355.886 45.46 358.442 53 358.442 62.62V105H336.342V65.61C336.342 60.7567 335.086 56.9867 332.572 54.3C330.059 51.6133 326.679 50.27 322.432 50.27C318.186 50.27 314.806 51.6133 312.292 54.3C309.779 56.9867 308.522 60.7567 308.522 65.61V105H286.292V32.46H308.522V42.08C310.776 38.8733 313.809 36.36 317.622 34.54C321.436 32.6333 325.726 31.68 330.492 31.68ZM385.07 24.92C381.17 24.92 377.963 23.7933 375.45 21.54C373.023 19.2 371.81 16.34 371.81 12.96C371.81 9.49333 373.023 6.63333 375.45 4.37999C377.963 2.03999 381.17 0.869992 385.07 0.869992C388.883 0.869992 392.003 2.03999 394.43 4.37999C396.943 6.63333 398.2 9.49333 398.2 12.96C398.2 16.34 396.943 19.2 394.43 21.54C392.003 23.7933 388.883 24.92 385.07 24.92ZM396.12 32.46V105H373.89V32.46H396.12ZM456.43 31.68C464.923 31.68 471.683 34.4533 476.71 40C481.823 45.46 484.38 53 484.38 62.62V105H462.28V65.61C462.28 60.7567 461.023 56.9867 458.51 54.3C455.997 51.6133 452.617 50.27 448.37 50.27C444.123 50.27 440.743 51.6133 438.23 54.3C435.717 56.9867 434.46 60.7567 434.46 65.61V105H412.23V32.46H434.46V42.08C436.713 38.8733 439.747 36.36 443.56 34.54C447.373 32.6333 451.663 31.68 456.43 31.68ZM527.388 31.42C532.501 31.42 536.964 32.46 540.778 34.54C544.678 36.62 547.668 39.35 549.748 42.73V32.46H571.978V104.87C571.978 111.543 570.634 117.567 567.948 122.94C565.348 128.4 561.318 132.733 555.858 135.94C550.484 139.147 543.768 140.75 535.708 140.75C524.961 140.75 516.251 138.193 509.578 133.08C502.904 128.053 499.091 121.207 498.138 112.54H520.108C520.801 115.313 522.448 117.48 525.048 119.04C527.648 120.687 530.854 121.51 534.668 121.51C539.261 121.51 542.901 120.167 545.588 117.48C548.361 114.88 549.748 110.677 549.748 104.87V94.6C547.581 97.98 544.591 100.753 540.778 102.92C536.964 105 532.501 106.04 527.388 106.04C521.408 106.04 515.991 104.523 511.138 101.49C506.284 98.37 502.428 93.9933 499.568 88.36C496.794 82.64 495.408 76.0533 495.408 68.6C495.408 61.1467 496.794 54.6033 499.568 48.97C502.428 43.3367 506.284 39.0033 511.138 35.97C515.991 32.9367 521.408 31.42 527.388 31.42ZM549.748 68.73C549.748 63.1833 548.188 58.8067 545.068 55.6C542.034 52.3933 538.308 50.79 533.888 50.79C529.468 50.79 525.698 52.3933 522.578 55.6C519.544 58.72 518.028 63.0533 518.028 68.6C518.028 74.1467 519.544 78.5667 522.578 81.86C525.698 85.0667 529.468 86.67 533.888 86.67C538.308 86.67 542.034 85.0667 545.068 81.86C548.188 78.6533 549.748 74.2767 549.748 68.73Z" fill="#19A89D"/>
</svg>
