<svg width="675" height="141" viewBox="0 0 675 141" fill="none" xmlns="http://www.w3.org/2000/svg">
<path opacity="0.25" d="M103.598 13.74V105H81.3675V50.27L60.9575 105H43.0175L22.4775 50.14V105H0.2475V13.74H26.5075L52.1175 76.92L77.4675 13.74H103.598ZM115.163 68.6C115.163 61.1467 116.55 54.6033 119.323 48.97C122.183 43.3367 126.04 39.0033 130.893 35.97C135.747 32.9367 141.163 31.42 147.143 31.42C152.257 31.42 156.72 32.46 160.533 34.54C164.433 36.62 167.423 39.35 169.503 42.73V32.46H191.733V105H169.503V94.73C167.337 98.11 164.303 100.84 160.403 102.92C156.59 105 152.127 106.04 147.013 106.04C141.12 106.04 135.747 104.523 130.893 101.49C126.04 98.37 122.183 93.9933 119.323 88.36C116.55 82.64 115.163 76.0533 115.163 68.6ZM169.503 68.73C169.503 63.1833 167.943 58.8067 164.823 55.6C161.79 52.3933 158.063 50.79 153.643 50.79C149.223 50.79 145.453 52.3933 142.333 55.6C139.3 58.72 137.783 63.0533 137.783 68.6C137.783 74.1467 139.3 78.5667 142.333 81.86C145.453 85.0667 149.223 86.67 153.643 86.67C158.063 86.67 161.79 85.0667 164.823 81.86C167.943 78.6533 169.503 74.2767 169.503 68.73ZM230.046 44.55C232.646 40.5633 235.896 37.4433 239.796 35.19C243.696 32.85 248.029 31.68 252.796 31.68V55.21H246.686C241.139 55.21 236.979 56.4233 234.206 58.85C231.433 61.19 230.046 65.35 230.046 71.33V105H207.816V32.46H230.046V44.55ZM307.751 105L285.651 74.58V105H263.421V8.8H285.651V61.97L307.621 32.46H335.051L304.891 68.86L335.311 105H307.751ZM412.163 67.56C412.163 69.64 412.033 71.8067 411.773 74.06H361.463C361.809 78.5667 363.239 82.0333 365.753 84.46C368.353 86.8 371.516 87.97 375.243 87.97C380.789 87.97 384.646 85.63 386.813 80.95H410.473C409.259 85.7167 407.049 90.0067 403.843 93.82C400.723 97.6333 396.779 100.623 392.013 102.79C387.246 104.957 381.916 106.04 376.023 106.04C368.916 106.04 362.589 104.523 357.043 101.49C351.496 98.4567 347.163 94.1233 344.043 88.49C340.923 82.8567 339.363 76.27 339.363 68.73C339.363 61.19 340.879 54.6033 343.913 48.97C347.033 43.3367 351.366 39.0033 356.913 35.97C362.459 32.9367 368.829 31.42 376.023 31.42C383.043 31.42 389.283 32.8933 394.743 35.84C400.203 38.7867 404.449 42.99 407.483 48.45C410.603 53.91 412.163 60.28 412.163 67.56ZM389.413 61.71C389.413 57.8967 388.113 54.8633 385.513 52.61C382.913 50.3567 379.663 49.23 375.763 49.23C372.036 49.23 368.873 50.3133 366.273 52.48C363.759 54.6467 362.199 57.7233 361.593 61.71H389.413ZM464.32 86.15V105H453.01C444.95 105 438.667 103.05 434.16 99.15C429.653 95.1633 427.4 88.7067 427.4 79.78V50.92H418.56V32.46H427.4V14.78H449.63V32.46H464.19V50.92H449.63V80.04C449.63 82.2067 450.15 83.7667 451.19 84.72C452.23 85.6733 453.963 86.15 456.39 86.15H464.32ZM487.883 24.92C483.983 24.92 480.776 23.7933 478.263 21.54C475.836 19.2 474.623 16.34 474.623 12.96C474.623 9.49333 475.836 6.63333 478.263 4.37999C480.776 2.03999 483.983 0.869992 487.883 0.869992C491.696 0.869992 494.816 2.03999 497.243 4.37999C499.756 6.63333 501.013 9.49333 501.013 12.96C501.013 16.34 499.756 19.2 497.243 21.54C494.816 23.7933 491.696 24.92 487.883 24.92ZM498.933 32.46V105H476.703V32.46H498.933ZM559.242 31.68C567.736 31.68 574.496 34.4533 579.522 40C584.636 45.46 587.192 53 587.192 62.62V105H565.092V65.61C565.092 60.7567 563.836 56.9867 561.322 54.3C558.809 51.6133 555.429 50.27 551.182 50.27C546.936 50.27 543.556 51.6133 541.042 54.3C538.529 56.9867 537.272 60.7567 537.272 65.61V105H515.042V32.46H537.272V42.08C539.526 38.8733 542.559 36.36 546.372 34.54C550.186 32.6333 554.476 31.68 559.242 31.68ZM630.2 31.42C635.313 31.42 639.777 32.46 643.59 34.54C647.49 36.62 650.48 39.35 652.56 42.73V32.46H674.79V104.87C674.79 111.543 673.447 117.567 670.76 122.94C668.16 128.4 664.13 132.733 658.67 135.94C653.297 139.147 646.58 140.75 638.52 140.75C627.773 140.75 619.063 138.193 612.39 133.08C605.717 128.053 601.903 121.207 600.95 112.54H622.92C623.613 115.313 625.26 117.48 627.86 119.04C630.46 120.687 633.667 121.51 637.48 121.51C642.073 121.51 645.713 120.167 648.4 117.48C651.173 114.88 652.56 110.677 652.56 104.87V94.6C650.393 97.98 647.403 100.753 643.59 102.92C639.777 105 635.313 106.04 630.2 106.04C624.22 106.04 618.803 104.523 613.95 101.49C609.097 98.37 605.24 93.9933 602.38 88.36C599.607 82.64 598.22 76.0533 598.22 68.6C598.22 61.1467 599.607 54.6033 602.38 48.97C605.24 43.3367 609.097 39.0033 613.95 35.97C618.803 32.9367 624.22 31.42 630.2 31.42ZM652.56 68.73C652.56 63.1833 651 58.8067 647.88 55.6C644.847 52.3933 641.12 50.79 636.7 50.79C632.28 50.79 628.51 52.3933 625.39 55.6C622.357 58.72 620.84 63.0533 620.84 68.6C620.84 74.1467 622.357 78.5667 625.39 81.86C628.51 85.0667 632.28 86.67 636.7 86.67C641.12 86.67 644.847 85.0667 647.88 81.86C651 78.6533 652.56 74.2767 652.56 68.73Z" fill="#19A89D"/>
</svg>
