<svg width="673" height="247" viewBox="0 0 673 247" fill="none" xmlns="http://www.w3.org/2000/svg">
<path opacity="0.25" d="M61.1203 113L40.6803 75.9H34.9403V113H11.0003V14.72H51.1803C58.927 14.72 65.507 16.0733 70.9203 18.78C76.427 21.4867 80.5336 25.22 83.2403 29.98C85.947 34.6467 87.3003 39.8733 87.3003 45.66C87.3003 52.1933 85.4337 58.0267 81.7003 63.16C78.0603 68.2933 72.647 71.9333 65.4603 74.08L88.1403 113H61.1203ZM34.9403 58.96H49.7803C54.167 58.96 57.4336 57.8867 59.5803 55.74C61.8203 53.5933 62.9403 50.56 62.9403 46.64C62.9403 42.9067 61.8203 39.9667 59.5803 37.82C57.4336 35.6733 54.167 34.6 49.7803 34.6H34.9403V58.96ZM175.968 72.68C175.968 74.92 175.828 77.2533 175.548 79.68H121.368C121.742 84.5333 123.282 88.2667 125.988 90.88C128.788 93.4 132.195 94.66 136.208 94.66C142.182 94.66 146.335 92.14 148.668 87.1H174.148C172.842 92.2333 170.462 96.8533 167.008 100.96C163.648 105.067 159.402 108.287 154.268 110.62C149.135 112.953 143.395 114.12 137.048 114.12C129.395 114.12 122.582 112.487 116.608 109.22C110.635 105.953 105.968 101.287 102.608 95.22C99.2484 89.1533 97.5684 82.06 97.5684 73.94C97.5684 65.82 99.2018 58.7267 102.468 52.66C105.828 46.5933 110.495 41.9267 116.468 38.66C122.442 35.3933 129.302 33.76 137.048 33.76C144.608 33.76 151.328 35.3467 157.208 38.52C163.088 41.6933 167.662 46.22 170.928 52.1C174.288 57.98 175.968 64.84 175.968 72.68ZM151.468 66.38C151.468 62.2733 150.068 59.0067 147.268 56.58C144.468 54.1533 140.968 52.94 136.768 52.94C132.755 52.94 129.348 54.1067 126.548 56.44C123.842 58.7733 122.162 62.0867 121.508 66.38H151.468ZM218.278 33.76C223.785 33.76 228.591 34.88 232.698 37.12C236.898 39.36 240.118 42.3 242.358 45.94V34.88H266.298V112.86C266.298 120.047 264.851 126.533 261.958 132.32C259.158 138.2 254.818 142.867 248.938 146.32C243.151 149.773 235.918 151.5 227.238 151.5C215.665 151.5 206.285 148.747 199.098 143.24C191.911 137.827 187.805 130.453 186.778 121.12H210.438C211.185 124.107 212.958 126.44 215.758 128.12C218.558 129.893 222.011 130.78 226.118 130.78C231.065 130.78 234.985 129.333 237.878 126.44C240.865 123.64 242.358 119.113 242.358 112.86V101.8C240.025 105.44 236.805 108.427 232.698 110.76C228.591 113 223.785 114.12 218.278 114.12C211.838 114.12 206.005 112.487 200.778 109.22C195.551 105.86 191.398 101.147 188.318 95.08C185.331 88.92 183.838 81.8267 183.838 73.8C183.838 65.7733 185.331 58.7267 188.318 52.66C191.398 46.5933 195.551 41.9267 200.778 38.66C206.005 35.3933 211.838 33.76 218.278 33.76ZM242.358 73.94C242.358 67.9667 240.678 63.2533 237.318 59.8C234.051 56.3467 230.038 54.62 225.278 54.62C220.518 54.62 216.458 56.3467 213.098 59.8C209.831 63.16 208.198 67.8267 208.198 73.8C208.198 79.7733 209.831 84.5333 213.098 88.08C216.458 91.5333 220.518 93.26 225.278 93.26C230.038 93.26 234.051 91.5333 237.318 88.08C240.678 84.6267 242.358 79.9133 242.358 73.94ZM295.658 26.76C291.458 26.76 288.004 25.5467 285.298 23.12C282.684 20.6 281.378 17.52 281.378 13.88C281.378 10.1467 282.684 7.06666 285.298 4.63999C288.004 2.11999 291.458 0.859992 295.658 0.859992C299.764 0.859992 303.124 2.11999 305.738 4.63999C308.444 7.06666 309.798 10.1467 309.798 13.88C309.798 17.52 308.444 20.6 305.738 23.12C303.124 25.5467 299.764 26.76 295.658 26.76ZM307.558 34.88V113H283.618V34.88H307.558ZM360.467 114.12C352.813 114.12 345.907 112.487 339.747 109.22C333.68 105.953 328.873 101.287 325.327 95.22C321.873 89.1533 320.147 82.06 320.147 73.94C320.147 65.9133 321.92 58.8667 325.467 52.8C329.013 46.64 333.867 41.9267 340.027 38.66C346.187 35.3933 353.093 33.76 360.747 33.76C368.4 33.76 375.307 35.3933 381.467 38.66C387.627 41.9267 392.48 46.64 396.027 52.8C399.573 58.8667 401.347 65.9133 401.347 73.94C401.347 81.9667 399.527 89.06 395.887 95.22C392.34 101.287 387.44 105.953 381.187 109.22C375.027 112.487 368.12 114.12 360.467 114.12ZM360.467 93.4C365.04 93.4 368.913 91.72 372.087 88.36C375.353 85 376.987 80.1933 376.987 73.94C376.987 67.6867 375.4 62.88 372.227 59.52C369.147 56.16 365.32 54.48 360.747 54.48C356.08 54.48 352.207 56.16 349.127 59.52C346.047 62.7867 344.507 67.5933 344.507 73.94C344.507 80.1933 346 85 348.987 88.36C352.067 91.72 355.893 93.4 360.467 93.4ZM461.647 34.04C470.794 34.04 478.074 37.0267 483.487 43C488.994 48.88 491.747 57 491.747 67.36V113H467.947V70.58C467.947 65.3533 466.594 61.2933 463.887 58.4C461.181 55.5067 457.541 54.06 452.967 54.06C448.394 54.06 444.754 55.5067 442.047 58.4C439.341 61.2933 437.987 65.3533 437.987 70.58V113H414.047V34.88H437.987V45.24C440.414 41.7867 443.681 39.08 447.787 37.12C451.894 35.0667 456.514 34.04 461.647 34.04ZM503.623 73.8C503.623 65.7733 505.116 58.7267 508.103 52.66C511.183 46.5933 515.336 41.9267 520.563 38.66C525.79 35.3933 531.623 33.76 538.063 33.76C543.57 33.76 548.376 34.88 552.483 37.12C556.683 39.36 559.903 42.3 562.143 45.94V34.88H586.083V113H562.143V101.94C559.81 105.58 556.543 108.52 552.343 110.76C548.236 113 543.43 114.12 537.923 114.12C531.576 114.12 525.79 112.487 520.563 109.22C515.336 105.86 511.183 101.147 508.103 95.08C505.116 88.92 503.623 81.8267 503.623 73.8ZM562.143 73.94C562.143 67.9667 560.463 63.2533 557.103 59.8C553.836 56.3467 549.823 54.62 545.063 54.62C540.303 54.62 536.243 56.3467 532.883 59.8C529.616 63.16 527.983 67.8267 527.983 73.8C527.983 79.7733 529.616 84.5333 532.883 88.08C536.243 91.5333 540.303 93.26 545.063 93.26C549.823 93.26 553.836 91.5333 557.103 88.08C560.463 84.6267 562.143 79.9133 562.143 73.94ZM627.343 9.4V113H603.403V9.4H627.343ZM74.8945 178.36C74.8945 184.053 73.5878 189.28 70.9745 194.04C68.3611 198.707 64.3478 202.487 58.9345 205.38C53.5211 208.273 46.8011 209.72 38.7745 209.72H23.9345V245H-0.0055465V146.72H38.7745C46.6145 146.72 53.2411 148.073 58.6545 150.78C64.0678 153.487 68.1278 157.22 70.8345 161.98C73.5411 166.74 74.8945 172.2 74.8945 178.36ZM36.9545 190.68C41.5278 190.68 44.9345 189.607 47.1745 187.46C49.4145 185.313 50.5345 182.28 50.5345 178.36C50.5345 174.44 49.4145 171.407 47.1745 169.26C44.9345 167.113 41.5278 166.04 36.9545 166.04H23.9345V190.68H36.9545ZM111.298 179.9C114.098 175.607 117.598 172.247 121.798 169.82C125.998 167.3 130.664 166.04 135.798 166.04V191.38H129.218C123.244 191.38 118.764 192.687 115.778 195.3C112.791 197.82 111.298 202.3 111.298 208.74V245H87.3577V166.88H111.298V179.9ZM220.881 204.68C220.881 206.92 220.741 209.253 220.461 211.68H166.281C166.654 216.533 168.194 220.267 170.901 222.88C173.701 225.4 177.107 226.66 181.121 226.66C187.094 226.66 191.247 224.14 193.581 219.1H219.061C217.754 224.233 215.374 228.853 211.921 232.96C208.561 237.067 204.314 240.287 199.181 242.62C194.047 244.953 188.307 246.12 181.961 246.12C174.307 246.12 167.494 244.487 161.521 241.22C155.547 237.953 150.881 233.287 147.521 227.22C144.161 221.153 142.481 214.06 142.481 205.94C142.481 197.82 144.114 190.727 147.381 184.66C150.741 178.593 155.407 173.927 161.381 170.66C167.354 167.393 174.214 165.76 181.961 165.76C189.521 165.76 196.241 167.347 202.121 170.52C208.001 173.693 212.574 178.22 215.841 184.1C219.201 189.98 220.881 196.84 220.881 204.68ZM196.381 198.38C196.381 194.273 194.981 191.007 192.181 188.58C189.381 186.153 185.881 184.94 181.681 184.94C177.667 184.94 174.261 186.107 171.461 188.44C168.754 190.773 167.074 194.087 166.421 198.38H196.381ZM265.29 246.12C258.477 246.12 252.41 244.953 247.09 242.62C241.77 240.287 237.57 237.113 234.49 233.1C231.41 228.993 229.683 224.42 229.31 219.38H252.97C253.25 222.087 254.51 224.28 256.75 225.96C258.99 227.64 261.743 228.48 265.01 228.48C267.997 228.48 270.283 227.92 271.87 226.8C273.55 225.587 274.39 224.047 274.39 222.18C274.39 219.94 273.223 218.307 270.89 217.28C268.557 216.16 264.777 214.947 259.55 213.64C253.95 212.333 249.283 210.98 245.55 209.58C241.817 208.087 238.597 205.8 235.89 202.72C233.183 199.547 231.83 195.3 231.83 189.98C231.83 185.5 233.043 181.44 235.47 177.8C237.99 174.067 241.63 171.127 246.39 168.98C251.243 166.833 256.983 165.76 263.61 165.76C273.41 165.76 281.11 168.187 286.71 173.04C292.403 177.893 295.67 184.333 296.51 192.36H274.39C274.017 189.653 272.803 187.507 270.75 185.92C268.79 184.333 266.177 183.54 262.91 183.54C260.11 183.54 257.963 184.1 256.47 185.22C254.977 186.247 254.23 187.693 254.23 189.56C254.23 191.8 255.397 193.48 257.73 194.6C260.157 195.72 263.89 196.84 268.93 197.96C274.717 199.453 279.43 200.947 283.07 202.44C286.71 203.84 289.883 206.173 292.59 209.44C295.39 212.613 296.837 216.907 296.93 222.32C296.93 226.893 295.623 231 293.01 234.64C290.49 238.187 286.803 240.987 281.95 243.04C277.19 245.093 271.637 246.12 265.29 246.12ZM323.616 158.76C319.416 158.76 315.963 157.547 313.256 155.12C310.643 152.6 309.336 149.52 309.336 145.88C309.336 142.147 310.643 139.067 313.256 136.64C315.963 134.12 319.416 132.86 323.616 132.86C327.723 132.86 331.083 134.12 333.696 136.64C336.403 139.067 337.756 142.147 337.756 145.88C337.756 149.52 336.403 152.6 333.696 155.12C331.083 157.547 327.723 158.76 323.616 158.76ZM335.516 166.88V245H311.576V166.88H335.516ZM348.106 205.8C348.106 197.773 349.599 190.727 352.586 184.66C355.666 178.593 359.819 173.927 365.046 170.66C370.272 167.393 376.106 165.76 382.546 165.76C387.679 165.76 392.346 166.833 396.546 168.98C400.839 171.127 404.199 174.02 406.626 177.66V141.4H430.566V245H406.626V233.8C404.386 237.533 401.166 240.52 396.966 242.76C392.859 245 388.052 246.12 382.546 246.12C376.106 246.12 370.272 244.487 365.046 241.22C359.819 237.86 355.666 233.147 352.586 227.08C349.599 220.92 348.106 213.827 348.106 205.8ZM406.626 205.94C406.626 199.967 404.946 195.253 401.586 191.8C398.319 188.347 394.306 186.62 389.546 186.62C384.786 186.62 380.726 188.347 377.366 191.8C374.099 195.16 372.466 199.827 372.466 205.8C372.466 211.773 374.099 216.533 377.366 220.08C380.726 223.533 384.786 225.26 389.546 225.26C394.306 225.26 398.319 223.533 401.586 220.08C404.946 216.627 406.626 211.913 406.626 205.94ZM521.525 204.68C521.525 206.92 521.385 209.253 521.105 211.68H466.925C467.298 216.533 468.838 220.267 471.545 222.88C474.345 225.4 477.752 226.66 481.765 226.66C487.738 226.66 491.892 224.14 494.225 219.1H519.705C518.398 224.233 516.018 228.853 512.565 232.96C509.205 237.067 504.958 240.287 499.825 242.62C494.692 244.953 488.952 246.12 482.605 246.12C474.952 246.12 468.138 244.487 462.165 241.22C456.192 237.953 451.525 233.287 448.165 227.22C444.805 221.153 443.125 214.06 443.125 205.94C443.125 197.82 444.758 190.727 448.025 184.66C451.385 178.593 456.052 173.927 462.025 170.66C467.998 167.393 474.858 165.76 482.605 165.76C490.165 165.76 496.885 167.347 502.765 170.52C508.645 173.693 513.218 178.22 516.485 184.1C519.845 189.98 521.525 196.84 521.525 204.68ZM497.025 198.38C497.025 194.273 495.625 191.007 492.825 188.58C490.025 186.153 486.525 184.94 482.325 184.94C478.312 184.94 474.905 186.107 472.105 188.44C469.398 190.773 467.718 194.087 467.065 198.38H497.025ZM581.755 166.04C590.901 166.04 598.181 169.027 603.595 175C609.101 180.88 611.855 189 611.855 199.36V245H588.055V202.58C588.055 197.353 586.701 193.293 583.995 190.4C581.288 187.507 577.648 186.06 573.075 186.06C568.501 186.06 564.861 187.507 562.155 190.4C559.448 193.293 558.095 197.353 558.095 202.58V245H534.155V166.88H558.095V177.24C560.521 173.787 563.788 171.08 567.895 169.12C572.001 167.067 576.621 166.04 581.755 166.04ZM672.031 224.7V245H659.851C651.171 245 644.404 242.9 639.551 238.7C634.697 234.407 632.271 227.453 632.271 217.84V186.76H622.751V166.88H632.271V147.84H656.211V166.88H671.891V186.76H656.211V218.12C656.211 220.453 656.771 222.133 657.891 223.16C659.011 224.187 660.877 224.7 663.491 224.7H672.031Z" fill="#19A89D"/>
</svg>
